:SAMPLES-PER-SECOND 30
:FULLY-SPECIFIED
:DEGREES
1175
root  13.6539 40.5839 10.3067 160.19 85.0702 165.205
RightUpLeg  3.49772 -12.3152 -12.4231
RightLeg  7.81262 -12.0835 2.35596
RightFoot  -0.949787 -0.302515 3.25884
RightToes  0.000481921 0.542163 -0.142578
Spine  -7.6374 -0.752319 1.02059
Spine1  16.4985 -0.79999 0.0692646
HEad  17.7762 -3.08171 0.939225
LeftShoulder1  11.5818 -19.1367 -44.5301
LeftArm  -3.12934 -52.4703 -30.8245
LeftForeArm  20.0629 2.85442 -11.5529
LeftHand  -0.25398 0.0180481 5.50724
RightShoulder  5.8955 12.7244 30.3581
RightArm  -15.4793 57.3214 40.6449
RightForeArm  -4.35989 -6.73497 5.88159
RightHand  -2.33695 8.89144 -19.2699
LeftUpLeg  3.30288 7.695 9.25859
LeftLeg  0.844442 9.79888 -3.23711
LeftFoot  4.47084 0.809679 -6.00104
LeftToes  1.06245e-005 4.65869e-005 -8.65517e-006
1176
root  13.6599 40.5882 10.3016 160.766 84.8107 165.709
RightUpLeg  3.53449 -12.2723 -12.4503
RightLeg  7.72798 -12.3783 2.34181
RightFoot  -0.916795 -0.306958 3.32315
RightToes  0.000481921 0.542163 -0.142578
Spine  -7.64964 -0.874421 0.871354
Spine1  16.476 -0.936985 0.142742
HEad  17.6456 -2.94111 1.02326
LeftShoulder1  11.6202 -19.2465 -44.4578
LeftArm  -4.21275 -53.8322 -31.9038
LeftForeArm  20.6513 6.50504 -10.8916
LeftHand  -0.25398 0.0180481 5.50724
RightShoulder  5.95804 12.9708 30.1898
RightArm  -15.9558 57.6733 40.8499
RightForeArm  -4.84712 -6.70941 5.77303
RightHand  -2.37545 9.0349 -19.3898
LeftUpLeg  3.225 7.59529 9.1552
LeftLeg  0.725491 9.66882 -3.20534
LeftFoot  4.55031 0.809364 -6.00033
LeftToes  1.06245e-005 4.65869e-005 -8.65517e-006
1177
root  13.6675 40.5901 10.2942 160.652 84.6413 165.575
RightUpLeg  3.57347 -12.2787 -12.5248
RightLeg  7.71543 -12.5204 2.31896
RightFoot  -0.918627 -0.310126 3.36803
RightToes  0.000481921 0.542163 -0.142578
Spine  -7.55866 -0.986222 0.754923
Spine1  16.4156 -1.06191 0.204711
HEad  17.4272 -2.73742 0.845046
LeftShoulder1  11.6443 -19.276 -44.4934
LeftArm  -4.47435 -54.5231 -32.6065
LeftForeArm  19.2262 7.78352 -10.715
LeftHand  -0.25398 0.0180481 5.50724
RightShoulder  5.98662 13.0828 30.116
RightArm  -15.6238 58.0971 41.1626
RightForeArm  -4.49961 -6.73104 5.87087
RightHand  -2.40348 9.20697 -19.3895
LeftUpLeg  3.23035 7.48111 9.02682
LeftLeg  0.611485 9.64848 -3.16315
LeftFoot  4.60622 0.809015 -6.00029
LeftToes  1.06245e-005 4.65869e-005 -8.65517e-006
1178
root  13.6768 40.5912 10.288 160.512 84.5975 165.451
RightUpLeg  3.61481 -12.2723 -12.5571
RightLeg  7.71332 -12.5587 2.29435
RightFoot  -0.918511 -0.312377 3.39901
RightToes  0.000481921 0.542163 -0.142578
Spine  -7.4413 -0.997884 0.775978
Spine1  16.3753 -1.077 0.209362
HEad  17.22 -2.61181 0.590167
LeftShoulder1  11.6442 -19.2735 -44.4985
LeftArm  -3.85086 -55.053 -33.2728
LeftForeArm  18.4647 7.69119 -10.9359
LeftHand  -0.25398 0.0180481 5.50724
RightShoulder  5.96781 13.0323 30.113
RightArm  -15.2558 58.4728 41.4658
RightForeArm  -4.07251 -6.74913 5.94071
RightHand  -2.37773 9.0974 -19.3281
LeftUpLeg  3.27657 7.44321 8.98008
LeftLeg  0.563987 9.65995 -3.15087
LeftFoot  4.61541 0.808275 -5.99514
LeftToes  1.06245e-005 4.65869e-005 -8.65517e-006
1179
root  13.6898 40.5918 10.2804 160.53 84.5926 165.466
RightUpLeg  3.64692 -12.2613 -12.5689
RightLeg  7.68407 -12.5694 2.2927
RightFoot  -0.903945 -0.314674 3.43104
RightToes  0.000481921 0.542163 -0.142578
Spine  -7.41935 -0.941879 0.873606
Spine1  16.3947 -1.01342 0.168282
HEad  17.1621 -2.65268 0.516957
LeftShoulder1  11.6322 -19.2817 -44.4333
LeftArm  -2.93132 -55.6723 -34.0086
LeftForeArm  18.9609 7.7308 -11.1999
LeftHand  -0.25398 0.0180481 5.50724
RightShoulder  5.94408 12.9548 30.1395
RightArm  -15.3022 58.634 41.6117
RightForeArm  -3.9378 -6.73844 5.86499
RightHand  -2.31934 8.80111 -19.2464
LeftUpLeg  3.29207 7.45017 8.97546
LeftLeg  0.569495 9.65501 -3.15904
LeftFoot  4.59437 0.80709 -5.98383
LeftToes  1.06245e-005 4.65869e-005 -8.65517e-006
1180
root  13.7071 40.5922 10.2702 160.371 84.5677 165.271
RightUpLeg  3.65741 -12.289 -12.6247
RightLeg  7.66152 -12.5547 2.31529
RightFoot  -0.898277 -0.316828 3.46115
RightToes  0.000481921 0.542163 -0.142578
Spine  -7.48126 -0.897644 0.94579
Spine1  16.4175 -0.949182 0.100034
HEad  17.2479 -2.72892 0.65266
LeftShoulder1  11.6161 -19.2947 -44.3418
LeftArm  -2.36894 -56.2259 -34.6644
LeftForeArm  19.476 7.75175 -11.3474
LeftHand  -0.25398 0.0180481 5.50724
RightShoulder  5.95291 12.9532 30.1977
RightArm  -15.5765 58.6644 41.6102
RightForeArm  -3.56834 -6.71901 5.7165
RightHand  -2.28235 8.70116 -19.0801
LeftUpLeg  3.28214 7.43431 8.93265
LeftLeg  0.565038 9.65786 -3.16673
LeftFoot  4.57167 0.805808 -5.97159
LeftToes  1.06245e-005 4.65869e-005 -8.65517e-006
1181
root  13.7279 40.5924 10.2622 160 84.5547 164.865
RightUpLeg  3.65745 -12.3325 -12.6957
RightLeg  7.66725 -12.5052 2.33316
RightFoot  -0.915634 -0.318743 3.48786
RightToes  0.000481921 0.542163 -0.142578
Spine  -7.53197 -0.89427 0.962202
Spine1  16.3768 -0.92539 0.0411025
HEad  17.3637 -2.66063 0.804019
LeftShoulder1  11.589 -19.286 -44.2512
LeftArm  -2.38203 -56.5587 -35.0568
LeftForeArm  19.3335 7.74585 -11.3057
LeftHand  -0.25398 0.0180481 5.50724
RightShoulder  5.97829 12.99 30.2718
RightArm  -15.673 58.7222 41.6293
RightForeArm  -2.66792 -6.71576 5.62128
RightHand  -2.27777 8.91958 -18.7683
LeftUpLeg  3.29879 7.41184 8.88173
LeftLeg  0.530948 9.67728 -3.18226
LeftFoot  4.5522 0.804857 -5.96491
LeftToes  1.06245e-005 4.65869e-005 -8.65517e-006
1182
root  13.7521 40.5926 10.2601 159.81 84.5889 164.658
RightUpLeg  3.6703 -12.3324 -12.7077
RightLeg  7.66426 -12.4594 2.33179
RightFoot  -0.939347 -0.321135 3.52224
RightToes  0.000481921 0.542163 -0.142578
Spine  -7.56782 -0.905182 0.946693
Spine1  16.3142 -0.93923 0.0506861
HEad  17.4317 -2.52487 0.816128
LeftShoulder1  11.5565 -19.2563 -44.1814
LeftArm  -2.59205 -56.7701 -35.1604
LeftForeArm  19.0849 7.73506 -11.2301
LeftHand  -0.25398 0.0180481 5.50724
RightShoulder  5.99034 13.0031 30.3167
RightArm  -15.5717 58.7956 41.7258
RightForeArm  -1.83722 -6.72242 5.59422
RightHand  -2.28383 9.17238 -18.5057
LeftUpLeg  3.34447 7.43185 8.89515
LeftLeg  0.507766 9.68545 -3.2127
LeftFoot  4.52197 0.804403 -5.9677
LeftToes  1.06245e-005 4.65869e-005 -8.65517e-006
1183
root  13.7793 40.5926 10.2602 159.868 84.6523 164.707
RightUpLeg  3.70239 -12.299 -12.6751
RightLeg  7.63072 -12.4309 2.33142
RightFoot  -0.954024 -0.323645 3.55871
RightToes  0.000481921 0.542163 -0.142578
Spine  -7.65124 -0.897806 0.920943
Spine1  16.3158 -0.963096 0.143181
HEad  17.4467 -2.55004 0.72126
LeftShoulder1  11.5408 -19.2289 -44.1743
LeftArm  -2.58815 -57.0036 -35.0809
LeftForeArm  19.1225 7.74514 -11.2954
LeftHand  -0.25398 0.0180481 5.50724
RightShoulder  5.99167 13.0003 30.331
RightArm  -15.5409 58.8093 41.7406
RightForeArm  -1.75613 -6.72224 5.58693
RightHand  -2.30123 9.2146 -18.5901
LeftUpLeg  3.38871 7.4759 8.95096
LeftLeg  0.520134 9.69103 -3.23616
LeftFoot  4.47484 0.803972 -5.98026
LeftToes  1.06245e-005 4.65869e-005 -8.65517e-006
1184
root  13.8072 40.5926 10.2581 159.751 84.7148 164.593
RightUpLeg  3.75081 -12.2986 -12.6805
RightLeg  7.60496 -12.3675 2.35155
RightFoot  -0.970969 -0.324732 3.57336
RightToes  0.000481921 0.542163 -0.142578
Spine  -7.74996 -0.867626 0.889319
Spine1  16.3656 -0.968703 0.256752
HEad  17.425 -2.74333 0.648057
LeftShoulder1  11.5461 -19.214 -44.2263
LeftArm  -2.47286 -57.2252 -34.9373
LeftForeArm  19.2661 7.76509 -11.4263
LeftHand  -0.25398 0.0180481 5.50724
RightShoulder  5.99447 13.0021 30.3444
RightArm  -15.6037 58.7922 41.5719
RightForeArm  -2.27546 -6.72053 5.61774
RightHand  -2.33888 9.14537 -18.9661
LeftUpLeg  3.44505 7.49093 8.97332
LeftLeg  0.539591 9.73239 -3.23486
LeftFoot  4.42107 0.804241 -5.99632
LeftToes  1.06245e-005 4.65869e-005 -8.65517e-006
